<svg xmlns="http://www.w3.org/2000/svg">
  <symbol id="polar-point" viewBox="0 0 20 20">
    <path d="M10 1.5A8.5 8.5 0 1 1 1.5 10 8.51 8.51 0 0 1 10 1.5M10 0a10 10 0 1 0 10 10A10 10 0 0 0 10 0z"/>
    <path d="M10 7.62A2.38 2.38 0 1 1 7.62 10 2.38 2.38 0 0 1 10 7.62m0-1.5A3.88 3.88 0 1 0 13.88 10 3.88 3.88 0 0 0 10 6.12z"/>
  </symbol>
  
<symbol id="fullscreen" viewBox="0 0 20 20">
        <path d="M6.22 12.72l1.06 1.06-3.92 3.921L5.654 20 .002 20v-5.656l2.297 2.297 3.92-3.921zM5.655 0L3.36 2.297 7.28 6.22l-1.06 1.06-3.921-3.921L.002 5.655 0 0h5.655zm8.125 7.28l-1.06-1.06 3.92-3.922L14.346.001 19.998 0v5.656L17.701 3.36l-3.92 3.921zM20 20h-5.655l2.296-2.297-3.921-3.922 1.06-1.06 3.921 3.922 2.297-2.298L20 20z"/>
</symbol>
</svg>

